<svg xmlns="http://www.w3.org/2000/svg" version="1.1" xmlns:xlink="http://www.w3.org/1999/xlink" xmlns:svgjs="http://svgjs.dev/svgjs" width="1440" height="560" preserveAspectRatio="none" viewBox="0 0 1440 560"><g mask="url(&quot;#SvgjsMask1095&quot;)" fill="none"><rect width="1440" height="560" x="0" y="0" fill="rgba(201, 205, 220, 1)"></rect><path d="M0 47.73C44.15 41.42 75.49 131 140 120C215.49 107.13 201.4 24.18 280 0C341.4 -18.89 355.64 33.87 420 33.87C439.64 33.87 428.27 4.77 448 0C498.27 -12.16 504 0 560 0C630 0 630 0 700 0C770 0 770 0 840 0C902.12 0 908.84 -11.36 964.23 0C978.84 3 970.42 28.72 980 28.72C991.33 28.72 988.28 3.65 1006.05 0C1058.28 -10.71 1063.03 0 1120 0C1190 0 1190 0 1260 0C1330 0 1330 0 1400 0C1470 0 1505 -35 1540 0C1575 35 1540 70 1540 140C1540 189.26 1565.31 238.52 1540 238.52C1496.52 238.52 1471.01 189.48 1402.41 140C1401.01 138.99 1401.23 137.54 1400 137.54C1398.71 137.54 1397.66 138.23 1397.36 140C1385.59 209.46 1375.14 210.3 1375.86 280C1376.46 338.63 1363.81 383.44 1400 396.67C1445.88 413.44 1494.24 332.37 1540 340C1564.24 344.04 1540 380 1540 420C1540 490 1571.94 521.94 1540 560C1513.19 591.94 1459.07 587.43 1422.5 560C1389.07 534.93 1426.75 455 1400 455C1363 455 1351.65 517.51 1295 560C1281.65 570.01 1277.5 560 1260 560C1190 560 1190 560 1120 560C1050 560 1050 560 980 560C910 560 910 560 840 560C807.91 560 805.62 568.9 775.83 560C735.62 547.98 739.51 518.16 700 518.16C644.72 518.16 643.79 542.8 586.25 560C573.79 563.72 573.13 560 560 560C546 560 545.21 564.17 532 560C475.21 542.07 477.12 517.08 420 515.79C351.12 514.23 349.04 533.36 280 554.29C276.12 555.47 278.18 559.84 274.17 560C208.18 562.69 207.09 560 140 560C70 560 35 595 0 560C-35 525 0 490 0 420C0 376.04 -20.56 364.22 0 332.09C24.24 294.22 89.6 305.61 89.6 280C89.6 254.67 23.83 267.45 0 230.22C-20.97 197.45 0 185.11 0 140C0 93.87 -25.85 51.42 0 47.73" stroke="rgba(233, 239, 244, 1)" stroke-width="2"></path><path d="M840 110.25C819.92 110.25 801.61 125.51 801.61 140C801.61 154.06 820.02 167.36 840 167.36C864 167.36 889.58 154.13 889.58 140C889.58 125.57 863.91 110.25 840 110.25" stroke="rgba(233, 239, 244, 1)" stroke-width="2"></path><path d="M1120 366.67C1095.23 366.67 1066.67 392.49 1066.67 420C1066.67 449.43 1095.43 480.54 1120 480.54C1142.1 480.54 1160 449.67 1160 420C1160 392.74 1141.89 366.67 1120 366.67" stroke="rgba(233, 239, 244, 1)" stroke-width="2"></path><path d="M0 127.27C6.51 127.27 20 133.69 20 140C20 146.27 6.54 152.44 0 152.44C-3.46 152.44 0 146.22 0 140C0 133.63 -3.49 127.27 0 127.27" stroke="rgba(233, 239, 244, 1)" stroke-width="2"></path><path d="M296.8 140C355.3 110.88 367.44 127.51 420 90.32C466.37 57.51 449.73 29 494.67 0C519.73 -16.16 527.34 0 560 0C630 0 630 0 700 0C770 0 770 0 840 0C877.46 0 914.93 -14.23 914.93 0C914.93 19.02 878.62 34.65 840 66.5C793.74 104.65 745.16 104.2 745.16 140C745.16 174.75 792.84 173.43 840 207.59C889.48 243.43 905.73 232.01 938.44 280C975.73 334.72 958.74 346.69 980 413C981.18 416.69 980.81 417.06 983.33 420C1043.81 490.56 1106.99 518.26 1106 560C1105.33 588.26 1043 560 980 560C915.38 560 912.35 566.16 850.77 560C842.35 559.16 847.68 550.18 840 546C772.3 509.15 767.77 515.81 700 477.93C655.06 452.81 654.33 452.49 614.58 420C584.33 395.28 588.46 363.51 560 363.51C528.97 363.51 529.64 394.17 495.6 420C459.64 447.29 462.21 457.43 420 469.74C354.41 488.86 341.31 457.56 280 482.86C231.93 502.69 246.25 535.21 201.25 560C176.25 573.78 170.63 560 140 560C70 560 35 595 0 560C-35 525 0 490 0 420C0 416.75 -3.06 414.22 0 413.49C66.94 397.55 85.23 422.18 140 386.67C188.17 355.44 172.94 333.33 205.88 280C242.94 220 241.64 219.06 280 160C287.1 149.06 285.3 145.72 296.8 140" stroke="rgba(233, 239, 244, 1)" stroke-width="2"></path><path d="M962.5 140C962.5 128.34 970.76 128.81 980 118.46C1033.23 58.81 1029.28 49.21 1087.44 0C1099.28 -10.02 1103.72 0 1120 0C1190 0 1190 0 1260 0C1330 0 1330 0 1400 0C1470 0 1505 -35 1540 0C1575 35 1540 70 1540 140C1540 167.65 1554.21 195.31 1540 195.31C1515.59 195.31 1498.8 170.67 1462.76 140C1428.8 111.09 1432.1 76.14 1400 76.14C1366.38 76.14 1344.23 99.12 1331.32 140C1312.04 201.05 1339.25 210.3 1335.63 280C1331.97 350.3 1340.87 357.27 1316.76 420C1303.06 455.65 1285.51 476.76 1260 476.76C1238.38 476.76 1242.44 447.54 1222.5 420C1172.44 350.83 1172.37 350.29 1120 283.33C1117.62 280.29 1116.05 282.39 1113 280C1046.05 227.52 1041.56 230.86 980 173.6C966.31 160.86 962.5 155.91 962.5 140" stroke="rgba(233, 239, 244, 1)" stroke-width="2"></path><path d="M1506.21 420C1512.03 403.32 1528.43 402.5 1540 402.5C1545.32 402.5 1540 411.25 1540 420C1540 490 1559.74 509.74 1540 560C1532.24 579.74 1489.73 579.58 1485 560C1472.83 509.58 1484.53 482.07 1506.21 420" stroke="rgba(233, 239, 244, 1)" stroke-width="2"></path><path d="M504 140C521.88 69.8 516.53 62.01 541.33 0C544.53 -7.99 550.66 0 560 0C630 0 630 0 700 0C770 0 770 0 840 0C852.82 0 865.63 -4.87 865.63 0C865.63 6.51 854.85 14.38 840 22.75C772.04 61.04 770.43 58.92 700 93.33C650.43 117.55 613.22 99.71 600 140C582.6 193.04 651.55 228.14 638.75 280C631.55 309.2 599.56 302.11 560 302.11C515.18 302.11 480.96 311.73 470 280C452.96 230.67 486.22 209.8 504 140" stroke="rgba(233, 239, 244, 1)" stroke-width="2"></path><path d="M1053.89 140C1053.89 104.86 1083.76 99.43 1120 65.63C1158.82 29.43 1158.11 21.51 1204 0C1228.11 -11.3 1232 0 1260 0C1330 0 1330 0 1400 0C1422.11 0 1444.21 -3.59 1444.21 0C1444.21 3.78 1418.08 0.59 1400 14.74C1328.62 70.59 1294.69 65.42 1265.28 140C1242.39 198.05 1296.94 211.17 1295.4 280C1294.3 329.29 1283.88 376.25 1260 376.25C1232.7 376.25 1229.19 326.02 1193.04 280C1159.19 236.92 1158.62 236.91 1120 198.05C1089.05 166.91 1053.89 171.07 1053.89 140" stroke="rgba(233, 239, 244, 1)" stroke-width="2"></path><path d="M1523.1 140C1523.1 118.19 1535.66 91 1540 91C1544.11 91 1540 115.5 1540 140C1540 146.05 1543.11 152.1 1540 152.1C1534.66 152.1 1523.1 148.74 1523.1 140" stroke="rgba(233, 239, 244, 1)" stroke-width="2"></path><path d="M736.3 280C779.98 252.98 790.86 247.82 840 247.82C864.58 247.82 882.27 256.4 883.75 280C887.66 342.49 870.67 352.07 850.77 420C848.8 426.73 846.95 428.51 840 429.33C771.57 437.36 767.8 441.51 700 437.7C684.75 436.84 673.9 433.46 673.9 420C673.9 381.83 681.98 374.87 700 334.44C713.18 304.87 709.98 296.29 736.3 280" stroke="rgba(233, 239, 244, 1)" stroke-width="2"></path><path d="M364 420C364 407.97 400.59 380 420 380C431.39 380 425.6 401.27 425.6 420C425.6 423.11 423.29 423.68 420 423.68C392.49 423.68 364 429.81 364 420" stroke="rgba(233, 239, 244, 1)" stroke-width="2"></path><path d="M0 520.63C35.21 520.63 96.92 549.78 96.92 560C96.92 569.47 34.46 574 0 560C-14 554.31 -13.25 520.63 0 520.63" stroke="rgba(233, 239, 244, 1)" stroke-width="2"></path><path d="M940.51 560C940.51 546.81 960.39 516 980 516C999.39 516 1018.5 546.74 1018.5 560C1018.5 568.74 999.25 560 980 560C960.26 560 940.51 568.81 940.51 560" stroke="rgba(233, 239, 244, 1)" stroke-width="2"></path></g><defs><mask id="SvgjsMask1095"><rect width="1440" height="560" fill="#ffffff"></rect></mask></defs></svg>