<svg xmlns="http://www.w3.org/2000/svg" version="1.1" xmlns:xlink="http://www.w3.org/1999/xlink" xmlns:svgjs="http://svgjs.dev/svgjs" width="1440" height="560" preserveAspectRatio="none" viewBox="0 0 1440 560"><g mask="url(&quot;#SvgjsMask1003&quot;)" fill="none"><path d="M662.67 0C685.81 5.67 676.64 32.67 700 34.29C765.31 38.81 772.01 27.47 840 12.28C848.74 10.33 844.65 0.77 853.46 0C914.65 -5.37 916.73 0 980 0C1050 0 1050 0 1120 0C1190 0 1190 0 1260 0C1330 0 1330 0 1400 0C1470 0 1505 -35 1540 0C1575 35 1540 70 1540 140C1540 176.3 1547.87 178.07 1540 212.59C1531.91 248.07 1525.31 246.94 1508.07 280C1471.22 350.65 1429.23 351.14 1431.82 420C1434.5 491.14 1527.86 519.3 1518.61 560C1511.95 589.3 1459.3 560 1400 560C1338.11 560 1327.71 575.25 1276.23 560C1257.71 554.51 1268.27 518.52 1260 518.52C1251.67 518.52 1261.72 554.46 1243.03 560C1191.72 575.2 1181.51 560 1120 560C1050 560 1050 560 980 560C910 560 910 560 840 560C791 560 786.07 572.44 742 560C716.07 552.68 722.39 520.47 700 520.47C673.39 520.47 675.45 551.12 644 560C605.45 570.88 602 560 560 560C507.5 560 501.68 573.03 455 560C431.68 553.49 440.08 520.93 420 520.93C392.58 520.93 393.06 550.77 360 560C323.06 570.31 320 560 280 560C210 560 210 560 140 560C70 560 35 595 0 560C-35 525 0 490 0 420C0 350 0 350 0 280C0 210 0 210 0 140C0 70 -35 35 0 0C35 -35 70 0 140 0C210 0 210 0 280 0C350 0 350 0 420 0C490 0 490 0 560 0C611.34 0 615.81 -11.48 662.67 0" stroke="rgba(194, 219, 238, 1)" stroke-width="2"></path><path d="M980 95.36C952.74 105.87 938.38 112.93 938.38 140C938.38 202.2 935.88 253.35 980 273.91C1026.69 295.67 1055 222.71 1120 224.65C1157.16 225.76 1152.92 251.48 1184.32 280C1222.92 315.05 1226.93 351.79 1260 351.79C1286.65 351.79 1296.19 319.72 1303.75 280C1316.34 213.83 1313.34 207.33 1300.3 140C1291.47 94.42 1296.26 68.27 1260 54.19C1206.11 33.27 1189.66 59.76 1120 70C1049.66 80.34 1043.55 70.87 980 95.36" stroke="rgba(194, 219, 238, 1)" stroke-width="2"></path><path d="M140 273.64C132.69 275.99 126 274.64 126 280C126 289.48 127.51 300.46 140 303.33C204.51 318.15 215.13 323.93 280 315.38C303.64 312.26 317.01 299.23 317.01 280C317.01 256.77 306.27 231.4 280 230.46C217.76 228.22 209.69 251.22 140 273.64" stroke="rgba(194, 219, 238, 1)" stroke-width="2"></path><path d="M700 257.73C686.79 261.53 682.18 269.83 682.18 280C682.18 288.17 691.86 286.36 700 294.41C762.65 356.36 762.12 356.98 823.77 420C832.12 428.53 832.12 437.5 840 437.5C847.51 437.5 847.16 428.65 854.55 420C914.47 349.9 978.73 332.38 974.62 280C971.45 239.65 908.7 240.12 840 234.55C771.39 228.99 765.7 238.81 700 257.73" stroke="rgba(194, 219, 238, 1)" stroke-width="2"></path><path d="M420 96.92C389.4 96.92 387.01 120.14 352.12 140C317.01 159.99 317.69 162.3 280 176.62C211.63 202.6 208.42 194.48 140 220.61C73.08 246.17 15.54 234.93 9.33 280C1.81 334.62 115.02 354.84 112.55 420C110.35 477.99 33.37 526.3 0 526.3C-22.91 526.3 0 473.15 0 420C0 350 0 350 0 280C0 210 0 210 0 140C0 70 -35 35 0 0C35 -35 70 0 140 0C210 0 210 0 280 0C350 0 350 0 420 0C490 0 490 0 560 0C572.44 0 575.27 -7.26 584.89 0C645.27 45.59 633.53 86.51 700 105.71C761.08 123.35 779.64 62.85 840 73.68C875.18 79.99 891.08 108.75 891.08 140C891.08 166.45 872.04 182.69 840 189.09C776.5 201.78 757.41 154.61 700 178.18C646.69 200.07 618.55 233.51 618.55 280C618.55 317.36 661.25 310.76 700 345.88C738.49 380.76 773.04 384.97 773.04 420C773.04 451.67 737.66 451.15 700 479.29C643.98 521.15 644.82 525.9 585.67 560C574.82 566.25 572.84 560 560 560C543.96 560 539.51 569.97 527.92 560C469.51 509.73 480.46 445.44 420 439.53C356.5 433.32 344.87 540.77 280 535.77C218.08 531 166.42 470.24 166.42 420C166.42 379.28 227.38 392.46 280 353.85C322.79 322.46 323.89 321.24 357.24 280C393.89 234.68 386.22 228.56 420 180.73C435.66 158.56 456.13 160.62 456.13 140C456.13 118.71 441.4 96.92 420 96.92" stroke="rgba(194, 219, 238, 1)" stroke-width="2"></path><path d="M980 44.64C946.47 44.19 920.77 12.41 920.77 0C920.77 -9.91 950.38 0 980 0C1050 0 1050 0 1120 0C1125 0 1130 -0.66 1130 0C1130 0.68 1124.96 1.21 1120 2.69C1049.96 23.53 1046.08 45.53 980 44.64" stroke="rgba(194, 219, 238, 1)" stroke-width="2"></path><path d="M1353.33 140C1340.73 68.37 1294.77 43.25 1309.19 0C1318.11 -26.75 1354.6 0 1400 0C1454.2 0 1488.09 -30.45 1508.39 0C1534.76 39.55 1508.4 71.64 1493.33 140C1477.54 211.64 1476.58 213.27 1446.67 280C1429.92 317.37 1422.43 348.21 1400 348.21C1378.32 348.21 1366.91 317.8 1358.44 280C1343.58 213.7 1365.35 208.37 1353.33 140" stroke="rgba(194, 219, 238, 1)" stroke-width="2"></path><path d="M900 420C939.4 374.19 935.58 329.41 980 329.41C1034.81 329.41 1041.7 372.2 1098.46 420C1111.7 431.15 1110.49 432.78 1120 447.32C1156.26 502.78 1190 523.12 1190 560C1190 579.46 1155 560 1120 560C1078.75 560 1074.18 572.59 1037.5 560C1004.18 548.56 1008.96 511.94 980 511.94C950.4 511.94 954.53 548.27 920.37 560C884.53 572.3 880.18 560 840 560C812.88 560 785.75 573.04 785.75 560C785.75 539.13 812.55 525.83 840 492.19C869.67 455.83 869.4 455.58 900 420" stroke="rgba(194, 219, 238, 1)" stroke-width="2"></path><path d="M1326.96 560C1326.96 532.4 1363.95 470 1400 470C1435.47 470 1470 532.12 1470 560C1470 577.12 1435 560 1400 560C1363.48 560 1326.96 577.4 1326.96 560" stroke="rgba(194, 219, 238, 1)" stroke-width="2"></path><path d="M57.04 0C103.61 25.69 96.37 41.23 140 77.24C181.19 111.23 226.67 115.58 226.67 140C226.67 160.75 183.95 156.04 140 167.58C70.61 185.79 49.49 209.25 0 199.5C-20.51 195.46 0 169.75 0 140C0 70 -20.26 49.74 0 0C8.26 -20.26 33.61 -12.93 57.04 0" stroke="rgba(194, 219, 238, 1)" stroke-width="2"></path><path d="M420 29.62C373.33 29.62 323.75 7.57 323.75 0C323.75 -7.24 371.88 0 420 0C447.5 0 475 -6.93 475 0C475 7.88 448.95 29.62 420 29.62" stroke="rgba(194, 219, 238, 1)" stroke-width="2"></path><path d="M512.58 140C512.58 99 530.62 62.63 560 62.63C597.57 62.63 646.47 95.97 646.47 140C646.47 198.57 595.54 267.83 560 267.83C528.6 267.83 512.58 201.6 512.58 140" stroke="rgba(194, 219, 238, 1)" stroke-width="2"></path><path d="M821.33 140C821.33 137.85 831.5 135.09 840 135.09C842.73 135.09 843.78 137.69 843.78 140C843.78 141.96 842.43 143.64 840 143.64C831.2 143.64 821.33 142.12 821.33 140" stroke="rgba(194, 219, 238, 1)" stroke-width="2"></path><path d="M397.47 280C397.47 261.04 401.99 244.36 420 244.36C474.5 244.36 542.5 257.01 542.5 280C542.5 304.53 469.44 339.39 420 339.39C396.93 339.39 397.47 308.56 397.47 280" stroke="rgba(194, 219, 238, 1)" stroke-width="2"></path><path d="M0 362.56C12.24 362.56 43.92 393.05 43.92 420C43.92 442.51 13.02 461.48 0 461.48C-8.94 461.48 0 440.74 0 420C0 391.28 -9.72 362.56 0 362.56" stroke="rgba(194, 219, 238, 1)" stroke-width="2"></path><path d="M232.45 420C232.45 402.96 255.25 392.31 280 392.31C313.08 392.31 348.11 402.18 348.11 420C348.11 440.26 311.91 468.46 280 468.46C254.08 468.46 232.45 441.03 232.45 420" stroke="rgba(194, 219, 238, 1)" stroke-width="2"></path><path d="M540.91 420C540.91 380.11 531.33 340.08 560 336C610.87 328.76 632.82 362.58 700 397.35C713.98 404.58 722.32 409.29 722.32 420C722.32 429.68 713.81 436.02 700 438.12C632.65 448.37 625.05 452.12 560 444.71C545.51 443.06 540.91 434.46 540.91 420" stroke="rgba(194, 219, 238, 1)" stroke-width="2"></path><path d="M945.45 420C945.45 400.38 960.82 380.88 980 380.88C1003.67 380.88 1031.15 400.35 1031.15 420C1031.15 439.76 1003.64 459.7 980 459.7C960.79 459.7 945.45 439.79 945.45 420" stroke="rgba(194, 219, 238, 1)" stroke-width="2"></path><path d="M829.5 560C829.5 555.96 834.11 546.88 840 546.88C847.14 546.88 855.56 556.28 855.56 560C855.56 562.84 847.78 560 840 560C834.75 560 829.5 562.52 829.5 560" stroke="rgba(194, 219, 238, 1)" stroke-width="2"></path><path d="M1100 560C1100 551.41 1110.52 532.68 1120 532.68C1129 532.68 1136.97 551.06 1136.97 560C1136.97 564.72 1128.49 560 1120 560C1110 560 1100 565.07 1100 560" stroke="rgba(194, 219, 238, 1)" stroke-width="2"></path><path d="M1377.68 560C1377.68 551.57 1388.98 532.5 1400 532.5C1410.84 532.5 1421.39 551.48 1421.39 560C1421.39 565.23 1410.7 560 1400 560C1388.84 560 1377.68 565.32 1377.68 560" stroke="rgba(194, 219, 238, 1)" stroke-width="2"></path></g><defs><mask id="SvgjsMask1003"><rect width="1440" height="560" fill="#ffffff"></rect></mask></defs></svg>