<svg xmlns="http://www.w3.org/2000/svg" version="1.1" xmlns:xlink="http://www.w3.org/1999/xlink" xmlns:svgjs="http://svgjs.dev/svgjs" width="1440" height="560" preserveAspectRatio="none" viewBox="0 0 1440 560"><g mask="url(&quot;#SvgjsMask1012&quot;)" fill="none"><path d="M 0,153 C 57.6,139 172.8,71 288,83 C 403.2,95 460.8,203.8 576,213 C 691.2,222.2 748.8,141.4 864,129 C 979.2,116.6 1036.8,160 1152,151 C 1267.2,142 1382.4,97.4 1440,84L1440 560L0 560z" fill="rgba(197, 212, 229, 1)"></path><path d="M 0,383 C 96,407.4 288,507.6 480,505 C 672,502.4 768,382.6 960,370 C 1152,357.4 1344,427.6 1440,442L1440 560L0 560z" fill="rgba(164, 190, 221, 1)"></path></g><defs><mask id="SvgjsMask1012"><rect width="1440" height="560" fill="#ffffff"></rect></mask></defs></svg>